<?xml version="1.0" encoding="UTF-8" standalone="no"?>
<!-- Created with Inkscape (http://www.inkscape.org/) -->

<svg
   width="90.057411mm"
   height="87.125mm"
   viewBox="0 0 90.057411 87.125"
   version="1.1"
   id="svg5"
   xml:space="preserve"
   xmlns:xlink="http://www.w3.org/1999/xlink"
   xmlns="http://www.w3.org/2000/svg"
   xmlns:svg="http://www.w3.org/2000/svg"><defs
     id="defs2"><linearGradient
       id="linearGradient23818"><stop
         style="stop-color:#000000;stop-opacity:1;"
         offset="0"
         id="stop23816" /></linearGradient><linearGradient
       id="linearGradient18633"><stop
         style="stop-color:#df5500;stop-opacity:0.74619287;"
         offset="0"
         id="stop18629" /><stop
         style="stop-color:#5f2500;stop-opacity:0;"
         offset="1"
         id="stop18631" /></linearGradient><linearGradient
       id="linearGradient17819"><stop
         style="stop-color:#df5500;stop-opacity:0.74509805;"
         offset="0"
         id="stop17815" /><stop
         style="stop-color:#5f2500;stop-opacity:0;"
         offset="1"
         id="stop17817" /></linearGradient><linearGradient
       xlink:href="#linearGradient18633"
       id="linearGradient17821"
       x1="78.729004"
       y1="95.554855"
       x2="87.0401"
       y2="95.554855"
       gradientUnits="userSpaceOnUse" /><linearGradient
       xlink:href="#linearGradient17819"
       id="linearGradient17905"
       gradientUnits="userSpaceOnUse"
       x1="78.729004"
       y1="95.554855"
       x2="87.0401"
       y2="95.554855"
       gradientTransform="translate(-221.13881,27.579219)" /><filter
       style="color-interpolation-filters:sRGB"
       id="filter26083"
       x="-0.011508581"
       y="-0.011905162"
       width="1.0230172"
       height="1.0238103"><feGaussianBlur
         stdDeviation="0.42213085"
         id="feGaussianBlur26085" /></filter></defs><g
     id="layer2"
     style="display:inline;opacity:1;mix-blend-mode:normal;fill:#d3aa05;fill-opacity:1;stroke:none"
     transform="translate(-65.004938,-64.395998)"><path
       style="opacity:1;mix-blend-mode:normal;fill:#ffe064;fill-opacity:1;stroke:none;stroke-width:0.264999;filter:url(#filter26083)"
       d="m 140.00714,120.3108 c 7.24875,-8.30642 4.27642,-13.52686 5.52,-18.56726 26.84725,-56.078128 -18.31746,-24.388704 -18.31746,-24.388704 -17.03226,-9.225803 -38.145166,-1.596773 -38.145166,-1.596773 0,0 -36.47157,-35.632319 -17.653406,25.338537 0.758473,3.63548 -1.77126,10.82093 6.791148,20.10243 18.447041,39.42075 41.704884,39.02697 61.804884,-0.88823 z"
       id="path8249" /></g><g
     id="layer5"
     style="display:inline"
     transform="translate(-65.004938,-64.395998)"><path
       style="opacity:1;fill:#1a1a1a;fill-opacity:0.864469;stroke:none;stroke-width:0.264999;stroke-opacity:0.996337"
       d="m 100.14479,130.83646 c 0,0 -0.611183,0.76413 -0.529165,1.19062 0.790865,3.65915 -2.731265,1.24189 7.433985,7.42225 0.50264,0.3056 0.95191,0.74388 1.47042,0.42258 11.33332,-7.0228 6.90731,-4.67359 8.02617,-7.84178 0.14462,-0.40952 -0.52917,-1.19062 -0.52917,-1.19062 -1.99317,-6.05741 -7.56067,-0.29643 -7.93612,-0.46456 -1.14483,-0.51268 -5.68928,-5.29846 -7.93612,0.46148 z"
       id="path19050" /><path
       style="opacity:1;fill:#000000;fill-opacity:1;stroke:#000000;stroke-width:0.264999;stroke-opacity:0.996337"
       d="m 105.05029,136.03685 c -1.66042,-4.46675 -3.97564,-3.39098 -3.97564,-3.39098 0,0 0.16371,2.0112 3.97564,3.39098 z"
       id="path19128" /><path
       style="display:inline;fill:#000000;fill-opacity:1;stroke:#000000;stroke-width:0.264999;stroke-opacity:0.996337"
       d="m 110.77526,136.10644 c 1.66042,-4.46675 3.97564,-3.39098 3.97564,-3.39098 0,0 -0.16371,2.0112 -3.97564,3.39098 z"
       id="path19128-0" /></g><g
     id="layer6"
     style="display:inline"
     transform="translate(-65.004938,-64.395998)"><path
       style="opacity:1;fill:#000000;fill-opacity:1;stroke:#000000;stroke-width:0.264999;stroke-opacity:0.996337"
       d="m 109.09491,139.54946 c -0.79513,2.61924 -0.37565,3.4635 -0.29033,4.08219 0.21118,1.53136 4.3202,1.45469 6.33986,2.36981 -5.64204,-0.74461 -14.8883,-0.0489 -14.8883,-0.0489 2.64167,-0.55196 6.69281,-0.60065 7.1561,-2.12814 0.60808,-1.21607 -0.24233,-4.26927 -0.24233,-4.26927 z"
       id="path19207" /></g><g
     id="layer4"
     style="display:inline;opacity:1"
     transform="translate(-65.004938,-64.395998)"><path
       style="opacity:1;fill:#200b00;fill-opacity:0.904762;stroke:#000000;stroke-width:0.276114"
       id="path12730"
       d="m 87.055245,94.775895 a 4.5680804,3.9490132 0 0 1 -3.606143,4.633446 4.5680804,3.9490132 0 0 1 -5.360059,-3.117114 4.5680804,3.9490132 0 0 1 3.605395,-4.633881 4.5680804,3.9490132 0 0 1 5.360562,3.116468"
       transform="matrix(0.99227372,0.12406797,0.10133076,0.99485279,0,0)" /><path
       style="opacity:1;fill:#000000;fill-opacity:1;stroke:#000000;stroke-width:0.195032"
       id="path12756"
       d="m 93.993252,103.88932 a 1.4765726,1.4765813 0 0 1 -1.165638,1.7325 1.4765726,1.4765813 0 0 1 -1.73257,-1.16553 1.4765726,1.4765813 0 0 1 1.165397,-1.73266 1.4765726,1.4765813 0 0 1 1.732732,1.16529" /><path
       style="opacity:1;fill:url(#linearGradient17821);fill-opacity:1;stroke:#000000;stroke-width:0.243774"
       id="path12780"
       d="m 86.842621,94.885729 a 4.033041,3.4864824 0 0 1 -3.183771,4.09075 4.033041,3.4864824 0 0 1 -4.732259,-2.75202 4.033041,3.4864824 0 0 1 3.183111,-4.091134 4.033041,3.4864824 0 0 1 4.732703,2.751449"
       transform="matrix(0.99227372,0.12406797,0.10133076,0.99485279,0,0)" /><path
       style="fill:#200b00;fill-opacity:0.904762;stroke:#000000;stroke-width:0.276114"
       id="path12730-8"
       d="m -134.08355,122.35511 a 4.5680804,3.9490132 0 0 1 -3.60614,4.63345 4.5680804,3.9490132 0 0 1 -5.36006,-3.11712 4.5680804,3.9490132 0 0 1 3.60539,-4.63388 4.5680804,3.9490132 0 0 1 5.36057,3.11647"
       transform="matrix(-0.99227372,0.12406797,-0.10133076,0.99485279,0,0)" /><path
       style="fill:#000000;fill-opacity:1;stroke:#000000;stroke-width:0.195032"
       id="path12756-1"
       d="m -122.64234,103.89035 a 1.4765726,1.4765813 0 0 1 -1.16564,1.7325 1.4765726,1.4765813 0 0 1 -1.73257,-1.16553 1.4765726,1.4765813 0 0 1 1.16539,-1.73266 1.4765726,1.4765813 0 0 1 1.73274,1.16529"
       transform="scale(-1,1)" /><path
       style="fill:url(#linearGradient17905);fill-opacity:1;stroke:#000000;stroke-width:0.243774"
       id="path12780-5"
       d="m -134.29617,122.46494 a 4.033041,3.4864824 0 0 1 -3.18377,4.09076 4.033041,3.4864824 0 0 1 -4.73226,-2.75202 4.033041,3.4864824 0 0 1 3.18311,-4.09114 4.033041,3.4864824 0 0 1 4.7327,2.75145"
       transform="matrix(-0.99227372,0.12406797,-0.10133076,0.99485279,0,0)" /><path
       style="opacity:1;fill:#000000;fill-opacity:1;stroke:#000000;stroke-width:0.264999;stroke-opacity:0.996337"
       d="m 84.759867,102.09565 c 0,0 1.403096,-0.74169 6.076614,-0.93145 2.047508,-0.0831 3.182459,0.24396 5.965726,2.52823 0,0 0.284864,1.68828 -0.321573,1.89617 -1.893138,0.64899 -1.108871,-3.4375 -4.424395,-4.05847 -1.967086,-0.36842 -6.668606,-0.43846 -7.296372,0.56552 z"
       id="path17964" /><path
       style="fill:#000000;fill-opacity:1;stroke:#000000;stroke-width:0.272012;stroke-opacity:0.996337"
       d="m 132.05432,101.9442 c 0,0 -1.41722,-0.77368 -6.13782,-0.97162 -2.06813,-0.0867 -3.21451,0.25448 -6.02582,2.63725 0,0 -0.28773,1.76109 0.32482,1.97794 1.91221,0.67698 1.12004,-3.58573 4.46896,-4.23348 1.9869,-0.38431 6.73578,-0.45737 7.36986,0.58991 z"
       id="path17964-8" /><path
       style="opacity:1;fill:#000000;fill-opacity:1;stroke:#000000;stroke-width:0.264999;stroke-opacity:0.996337"
       d="m 84.681739,102.27672 c 0.239562,-0.92137 2.178331,1.67786 2.305225,2.32091 0,0 1.191818,-3.55193 2.195453,-3.15988 0,0 -2.823669,-0.16934 -4.500678,0.83897 z"
       id="path18412" /><path
       style="display:inline;fill:#000000;fill-opacity:1;stroke:#000000;stroke-width:0.264999;stroke-opacity:0.996337"
       d="m 132.07698,102.08875 c -0.23956,-0.92137 -2.17833,1.67786 -2.30522,2.32091 0,0 -1.81125,-3.58329 -2.81489,-3.19124 0,0 3.4431,-0.13798 5.12011,0.87033 z"
       id="path18412-1" /></g><g
     id="layer3"
     style="display:inline"
     transform="translate(-65.004938,-64.395998)"><path
       style="opacity:1;fill:#000000;fill-opacity:1;stroke:#000000;stroke-width:0.264999"
       d="m 96.976273,119.36989 c -2.00838,4.80794 -3.001642,6.97583 -3.700905,10.47544 -0.699263,3.49961 -5.645449,3.70091 -0.815454,10.38136 -7.10785,-6.02961 -3.701114,-7.52939 -0.690001,-12.63954 7.301804,-12.39187 2.885453,-18.06543 2.885453,-18.06543 0,0 1.435204,-0.16691 1.906076,-5.86408 0,0 2.484828,10.7568 0.414831,15.71225 z"
       id="path9066" /><path
       style="display:inline;opacity:1;fill:#000000;fill-opacity:0.912088;stroke:#000000;stroke-width:0.264999"
       d="m 119.54012,119.20866 c 2.00838,4.80794 3.00164,6.97583 3.70091,10.47544 0.69926,3.49961 5.64545,3.70091 0.81545,10.38136 7.10785,-6.02961 3.70112,-7.52939 0.69,-12.63954 -7.3018,-12.39187 -2.88545,-18.06543 -2.88545,-18.06543 0,0 -1.4352,-0.16691 -1.90608,-5.86409 0,0 -2.48482,10.75681 -0.41483,15.71226 z"
       id="path9066-8" /><path
       class="UnoptimicedTransforms"
       style="opacity:0.5;fill:#000000;fill-opacity:0;stroke:none;stroke-width:0.264999"
       d="m 76.339034,116.42161 c -2.36427,-0.4379 -3.970523,-2.7646 -3.947757,-5.50466 0,0 0,0 0,0 0.01864,-0.42234 0.07754,-0.85877 0.18108,-1.30252 0.238479,-1.02205 0.685698,-1.96198 1.274746,-2.73535 0.670718,-0.86855 1.608309,-1.64047 2.626037,-1.98348 1.029194,-0.34686 1.957919,-0.20458 2.81406,0.29793 0.785634,0.46114 1.514099,1.24061 2.005718,1.87236 0.517287,0.66474 0.983268,1.4287 1.08829,2.37141 0.132917,0.74124 0.125932,1.53004 -0.06653,2.3526 -0.08392,0.35868 -0.199324,0.70736 -0.343717,1.04344 0,0 0,0 0,0 -0.934508,2.45195 -3.271882,4.02539 -5.631923,3.58827 z"
       id="path9098" /><path
       style="opacity:1;fill:#000000;fill-opacity:1;stroke:#000000;stroke-width:0.194021"
       d="m 108.10465,88.946032 0.13255,19.031208 0.86159,-19.094858 z"
       id="path12134" /><path
       style="opacity:1;fill:#000000;fill-opacity:1;stroke:none;stroke-width:0.264999"
       d="m 79.318561,104.75445 c 0.878835,0.37147 0.601064,3.15957 -0.541911,6.94254 m 0.167246,-0.68711 c 0.04914,1.70177 0.0044,3.62954 -0.14797,5.66809 m -4.871209,-0.93552 c 0.01856,-0.0603 0.03725,-0.12059 0.05606,-0.181 0.562928,-1.80786 1.177601,-3.49674 1.800307,-4.98653 m 0.06029,-0.16952 c 1.152943,-2.23883 2.286836,-3.9934 3.212216,-4.97407 m 0.129278,1.07783 c -0.225165,-0.89919 -0.195306,-1.51828 0.135692,-1.75471 0.330998,-0.23643 0.926313,-0.0639 1.703876,0.44073 m 0.129278,1.07783 c -0.0089,1.34833 -0.401994,3.40009 -1.11596,5.81501 m 0.06029,-0.16952 c -0.333142,1.57995 -0.785919,3.31924 -1.348847,5.12711 -0.01881,0.0604 -0.03768,0.12068 -0.0566,0.18082 m -4.871209,-0.93552 c 0.164617,-2.03761 0.418538,-3.9491 0.730214,-5.62281 m 0.167246,-0.68711 c 1.916758,-3.45591 3.722882,-5.59801 4.601717,-5.22654"
       id="path12144"
       class="UnoptimicedTransforms"
       transform="matrix(1.1240458,0,0,-1,12.587106,193.16439)" /><path
       style="display:inline;opacity:1;fill:#000000;fill-opacity:1;stroke:none;stroke-width:0.264999"
       d="m 79.318561,104.75445 c 0.878835,0.37147 0.601064,3.15957 -0.541911,6.94254 m 0.167246,-0.68711 c 0.04914,1.70177 0.0044,3.62954 -0.14797,5.66809 m -4.871209,-0.93552 c 0.01856,-0.0603 0.03725,-0.12059 0.05606,-0.181 0.562928,-1.80786 1.177601,-3.49674 1.800307,-4.98653 m 0.06029,-0.16952 c 1.152943,-2.23883 2.286836,-3.9934 3.212216,-4.97407 m 0.129278,1.07783 c -0.225165,-0.89919 -0.195306,-1.51828 0.135692,-1.75471 0.330998,-0.23643 0.926313,-0.0639 1.703876,0.44073 m 0.129278,1.07783 c -0.0089,1.34833 -0.401994,3.40009 -1.11596,5.81501 m 0.06029,-0.16952 c -0.333142,1.57995 -0.785919,3.31924 -1.348847,5.12711 -0.01881,0.0604 -0.03768,0.12068 -0.0566,0.18082 m -4.871209,-0.93552 c 0.164617,-2.03761 0.418538,-3.9491 0.730214,-5.62281 m 0.167246,-0.68711 c 1.916758,-3.45591 3.722882,-5.59801 4.601717,-5.22654"
       id="path12144-6"
       class="UnoptimicedTransforms"
       transform="matrix(-1.1240458,0,0,-1,204.41585,193.17209)" /><path
       style="opacity:1;fill:#000000;fill-opacity:1;stroke:#000000;stroke-width:0.264999"
       d="m 78.848109,105.41308 c -0.950182,3.77352 -1.203388,3.03979 -1.756362,5.175 -0.501461,1.93629 -0.453604,4.6687 -0.815453,6.14726 -0.09114,0.37242 0.789905,0.66565 0.784088,0.28228 -0.02144,-1.41295 0.196464,-5.96891 0.972271,-7.59 l 2.101362,-4.3909 c 0.217097,-0.45364 -1.163106,-0.11132 -1.285906,0.37633 z"
       id="path12174" /><path
       style="display:inline;opacity:1;fill:#000000;fill-opacity:1;stroke:#000000;stroke-width:0.264999"
       d="m 137.48615,105.28948 c 0.95018,3.77352 1.20339,3.03979 1.75636,5.175 0.50146,1.93629 0.4536,4.6687 0.81545,6.14726 0.0911,0.37242 -0.7899,0.66565 -0.78408,0.28228 0.0214,-1.41295 -0.19647,-5.96891 -0.97228,-7.59 l -2.10136,-4.3909 c -0.21709,-0.45364 1.16311,-0.11132 1.28591,0.37633 z"
       id="path12174-2" /><path
       style="opacity:1;fill:#000000;fill-opacity:1;stroke:#000000;stroke-width:0.264999"
       d="m 92.710822,98.230816 -3.826359,-3.449995 4.579085,2.759996 z"
       id="path12204" /><path
       style="display:inline;opacity:1;fill:#000000;fill-opacity:1;stroke:#000000;stroke-width:0.264999"
       d="m 124.10875,97.91575 3.82636,-3.449995 -4.57908,2.759996 z"
       id="path12204-0" /><path
       style="opacity:1;fill:#000000;fill-opacity:1;stroke:#000000;stroke-width:0.264999"
       d="m 94.969,95.721729 c 0.25091,0.18818 2.007273,2.320905 2.007273,2.320905 l 0.501816,-5.708177 -1.129088,-5.206356 c 0.550713,3.032995 0.07654,5.895175 -1.380001,8.593628 z"
       id="path12228" /><path
       style="display:inline;opacity:1;fill:#000000;fill-opacity:1;stroke:#000000;stroke-width:0.264999"
       d="m 122.23681,95.255006 c -0.25091,0.18818 -2.00728,2.320905 -2.00728,2.320905 l -0.50181,-5.708177 1.12909,-5.206356 c -0.55072,3.032995 -0.0765,5.895175 1.38,8.593628 z"
       id="path12228-8" /><path
       style="opacity:1;fill:#000000;fill-opacity:1;stroke:#000000;stroke-width:0.264999"
       d="m 110.26612,99.84274 c 0,0 1.33064,-3.326611 3.77016,-4.479837 l -2.04032,-4.524193 c 0,0 -1.48041,2.840036 -1.77419,4.391129 -0.28616,1.510844 0.0443,4.612901 0.0443,4.612901 z"
       id="path12267" /><path
       style="display:inline;opacity:1;fill:#121212;fill-opacity:1;stroke:#000000;stroke-width:0.264999"
       d="m 106.59133,99.817197 c 0,0 -1.33064,-3.326611 -3.77016,-4.479837 l 2.04032,-4.524193 c 0,0 1.48041,2.840036 1.77419,4.391129 0.28616,1.510844 -0.0443,4.612901 -0.0443,4.612901 z"
       id="path12267-1" /><path
       style="opacity:1;fill:#000000;fill-opacity:1;stroke:#000000;stroke-width:0.206848;stroke-opacity:0.996337"
       id="path18687"
       d="m 93.927152,103.96888 a 1.3375838,1.2599694 0 0 1 -1.055918,1.47834 1.3375838,1.2599694 0 0 1 -1.569484,-0.99454 1.3375838,1.2599694 0 0 1 1.055699,-1.47848 1.3375838,1.2599694 0 0 1 1.569631,0.99433" /><path
       style="display:inline;fill:#000000;fill-opacity:1;stroke:#000000;stroke-width:0.206848;stroke-opacity:0.996337"
       id="path18687-1"
       d="m 125.35311,103.95357 a 1.3375838,1.2599694 0 0 1 -1.05592,1.47834 1.3375838,1.2599694 0 0 1 -1.56948,-0.99454 1.3375838,1.2599694 0 0 1 1.0557,-1.47849 1.3375838,1.2599694 0 0 1 1.56963,0.99434" /><path
       style="opacity:1;fill:#000000;fill-opacity:0;stroke:#000000;stroke-width:0.264999;stroke-opacity:0.996337"
       d="m 99.718254,103.74066 c 0,0 7.202926,6.36102 1.777346,23.47963"
       id="path22610" /><path
       style="display:inline;fill:#000000;fill-opacity:0;stroke:#000000;stroke-width:0.264999;stroke-opacity:0.996337"
       d="m 117.16928,103.81708 c 0,0 -7.20293,6.36102 -1.77735,23.47963"
       id="path22610-6" /><path
       style="opacity:1;fill:#000000;fill-opacity:0.849817;stroke:none;stroke-width:0.264999;stroke-opacity:0.996337"
       d="M 87.463952,79.325593 C 56.594321,47.520521 71.842047,92.795978 71.842047,92.795978 l 0.514496,-5.472342 2.572469,1.870887 1.169304,-5.61266 c 0,0 3.788546,1.496709 3.741773,1.262848 -0.04677,-0.233861 0.467722,-4.349811 0.467722,-4.349811 l 3.320824,1.403165 0.561266,-3.975635 z"
       id="path23758" /><path
       style="opacity:1;fill:#000000;fill-opacity:0.849817;stroke:none;stroke-width:0.264999;stroke-opacity:0.996337"
       d="m 144.24536,97.660284 c 21.14102,-44.620648 -14.78,-17.960512 -14.78,-17.960512 l 5.89329,-0.935443 -1.12253,5.098167 4.81753,-1.73057 -1.21607,6.641647 4.63044,-1.917659 -2.24506,5.472344 4.67721,-2.104748 z"
       id="path23784" /></g></svg>
